<?xml version="1.0"?>
<svg width="256" height="256" xmlns="http://www.w3.org/2000/svg" xmlns:svg="http://www.w3.org/2000/svg" xmlns:xlink="http://www.w3.org/1999/xlink">
 <metadata id="metadata7">image/svg+xml</metadata>
 <defs>
  <symbol id="svg_12" viewBox="0 0 241 257" xmlns="http://www.w3.org/2000/svg">
   <g id="svg_11">
    <path d="m111.86,1.74c5.39,-0.84 10.89,-1 16.28,-0.05c-5.43,-0.13 -10.86,-0.08 -16.28,0.05z" fill="#525252" id="svg_15" opacity="0.83"/>
   </g>
   <g id="svg_10">
    <path d="m35.58,29.58c21.71,-16.9 48.87,-26.45 76.28,-27.84c5.42,-0.13 10.85,-0.18 16.28,-0.05c30.66,1.67 61.31,13.12 83.92,34.22c15.16,14.44 26.47,33.85 27.98,55.04c0.16,6.99 0.56,14.19 -1.42,20.98c-0.17,0.5 -0.5,1.51 -0.66,2.01c0.06,3.15 -0.96,6.18 -1.81,9.17c-2.7,9.13 -6.82,17.86 -12.52,25.5c-7.15,9.76 -16.7,17.33 -24.89,26.14c-4.87,5.24 -8.64,11.65 -10.27,18.65c-0.7,3.15 0.24,6.36 -0.06,9.52c-1.48,3.7 -4.48,7.46 -3.12,11.65c1.64,5.69 9.29,8.31 14.09,4.82c3.52,-2.13 3.56,-6.66 4.08,-10.27l0.1,-0.93c4.3,-2.43 8.06,-5.69 11.1,-9.58c4.23,-5.08 9.16,-9.57 14.64,-13.28c3.23,4.3 6.36,9.21 6.68,14.71c0.18,0.5 0.54,1.48 0.72,1.98c1.16,5.33 0.07,10.81 -1.51,15.94l-0.93,-0.09c-4.02,-0.4 -9,-1.12 -11.81,2.55c-3.68,3.79 -1.56,9.29 -0.48,13.69c-3.58,2.24 -7.4,4.47 -11.69,4.87c-3.05,-0.97 -5.97,-2.59 -9.21,-2.76c-2.82,0.25 -5.21,1.93 -7.59,3.31l-0.78,0.49l-0.05,-0.74c-0.37,-0.12 -1.09,-0.34 -1.46,-0.45c-6.56,-0.06 -12.57,-3.42 -17.93,-6.92l0.06,-0.91c0.12,-3.75 0.79,-8.2 -2.1,-11.14c-3.74,-4.26 -11.29,-3.72 -14.31,1.1c-3.24,4.12 -1.74,10.85 2.91,13.22c2.57,1.04 5.39,1.02 8.12,1.23l1.04,0.06c0.94,4.95 1.84,10.16 0.52,15.12c-1.08,3.03 -4.5,4.12 -7.38,4.62c-5.1,0.29 -10.22,0.33 -15.32,0.08c-1.92,-0.2 -3.8,-0.62 -5.69,-1c2.17,-3.01 5.36,-6.1 4.82,-10.15c-0.48,-5.1 -5.66,-9.12 -10.73,-8.11c-4.36,0.7 -6.64,4.92 -9.16,8.06c-2.41,-3.71 -4.26,-7.75 -5.94,-11.83c-2.9,5.53 -5.01,11.82 -9.96,15.94c-3.55,2.78 -7.87,4.36 -12.09,5.81c-7.86,2.53 -16.17,1.06 -24.23,1.29c2.2,-1.93 4.6,-3.79 6.14,-6.34c1.96,-3.26 1.1,-7.77 -1.59,-10.35c-2.1,-1.74 -4.82,-2.37 -7.31,-3.29c0.87,-3 1.77,-5.99 2.9,-8.9c-5.69,4.43 -11.73,8.78 -18.76,10.78c-8.87,2.11 -18.33,3.6 -27.23,0.76c-9.4,-2.81 -18.38,-9.04 -22.18,-18.38c2.33,-3.35 5.42,-7.08 4.42,-11.46c-0.75,-3.7 -4.39,-5.58 -7.14,-7.67c1.21,-5.84 3.63,-11.5 7.58,-16.02c5.63,3.91 10.61,8.68 15.03,13.91c2.76,3.2 5.6,6.74 9.73,8.18c5.14,1.65 11.89,0.73 14.84,-4.29c3.03,-4.86 1.15,-10.78 -0.82,-15.66c-4.16,-10.09 -12.78,-17.17 -20.21,-24.78c-9.81,-9.33 -17.99,-20.6 -22.65,-33.38c-5.74,-16.08 -8.26,-33.84 -3.77,-50.57c4.76,-19.37 17.35,-35.98 32.78,-48.26m28.37,86.34c-12.04,5.74 -20.15,18.06 -21.84,31.15c-0.96,7.93 -0.48,16.16 2.12,23.74c4.14,10.91 13.23,19.77 24.13,23.88c10.92,4 23.49,3.87 34.04,-1.24c7.15,-3.16 12.69,-8.8 17.67,-14.67c4.47,4.58 8.43,9.89 14.24,12.89c13.77,8.32 32.13,7.98 45.63,-0.72c7.3,-5.09 13.5,-12.19 16.24,-20.78c4.3,-11.95 3.32,-25.57 -2.34,-36.9c-5.01,-9.86 -14.35,-17.4 -25.1,-20.04c-9.83,-2.42 -20.58,-2.32 -30.02,1.6c-7.47,2.93 -13.09,8.79 -18.58,14.4c-3.6,-3.86 -7.02,-8.01 -11.48,-10.92c-13.06,-8.69 -30.72,-9.04 -44.71,-2.39m-1.58,86.36c-4.75,0.92 -7.37,6.06 -7.19,10.57c0.53,4.84 5.66,8.53 10.42,7.73c4.19,-0.69 7.8,-4.41 8.05,-8.69c0.35,-5.75 -5.57,-11.16 -11.28,-9.61m65.04,0.11c-3.68,0.79 -6.9,3.89 -7.36,7.7c-0.84,4.48 2.18,9.12 6.53,10.36c5.43,1.8 11.85,-2.66 11.83,-8.45c0.7,-5.83 -5.38,-10.96 -11,-9.61m-95.05,11.95c-4.67,1.15 -8.1,6.33 -6.87,11.08c1.03,4.5 5.67,7.86 10.29,7.22c4.98,-0.55 8.78,-5.64 8.09,-10.56c-0.59,-5.29 -6.4,-9.11 -11.51,-7.74m63.99,2.89c-4.63,1.61 -7.24,7.31 -5.53,11.89c1.26,3.79 5.16,6.44 9.16,6.08c6.64,0.24 11.39,-8.34 7.61,-13.81c-2.15,-3.89 -7.09,-5.53 -11.24,-4.16z" fill="#a3a3a3" id="svg_16"/>
   </g>
   <g id="svg_9">
    <path d="m63.95,115.92c13.99,-6.65 31.65,-6.3 44.71,2.39c4.46,2.91 7.88,7.06 11.48,10.92c5.49,-5.61 11.11,-11.47 18.58,-14.4c9.44,-3.92 20.19,-4.02 30.02,-1.6c10.75,2.64 20.09,10.18 25.1,20.04c5.66,11.33 6.64,24.95 2.34,36.9c-2.74,8.59 -8.94,15.69 -16.24,20.78c-13.5,8.7 -31.86,9.04 -45.63,0.72c-5.81,-3 -9.77,-8.31 -14.24,-12.89c-4.98,5.87 -10.52,11.51 -17.67,14.67c-10.55,5.11 -23.12,5.24 -34.04,1.24c-10.9,-4.11 -19.99,-12.97 -24.13,-23.88c-2.6,-7.58 -3.08,-15.81 -2.12,-23.74c1.69,-13.09 9.8,-25.41 21.84,-31.15m12.44,5.54c-12.61,3.33 -22.42,15.39 -22.65,28.51c-0.93,14.66 10.2,28.91 24.63,31.58c9.9,2.02 20.67,-1.22 27.73,-8.46c8.65,-8.33 11.27,-22 6.9,-33.09c-5.22,-14.32 -21.96,-22.81 -36.61,-18.54m72.96,-0.09c-13.32,2.67 -23.49,15.16 -24.06,28.62c-0.56,10.85 5.08,21.72 14.25,27.52c8.3,5.43 19.33,6.37 28.43,2.45c10.09,-4.27 17.46,-14.15 18.64,-25.04c1.43,-11.69 -4.61,-23.8 -14.66,-29.87c-6.67,-4.14 -14.97,-5.32 -22.6,-3.68z" fill="#5d5d5d" id="svg_17"/>
    <path d="m83.38,125.45c9.21,-1.84 19.94,4.06 21.46,13.73c1.47,8.54 -5.76,16.48 -13.92,17.82c-6.97,1.48 -14.89,-0.94 -19.19,-6.78c-3.06,-3.81 -4,-9.2 -2.29,-13.8c2.12,-5.9 7.91,-9.9 13.94,-10.97z" fill="#5d5d5d" id="svg_18"/>
    <path d="m150.42,125.58c9.69,-1.92 21.07,5.09 21.51,15.45c0.37,9.48 -8.9,16.84 -17.92,16.65c-5.44,0.12 -10.88,-2.15 -14.59,-6.13c-4.59,-4.86 -5.23,-13.02 -1.28,-18.45c2.89,-3.99 7.46,-6.65 12.28,-7.52z" fill="#5d5d5d" id="svg_19"/>
    <path d="m127.41,202.39c5.62,-1.35 11.7,3.78 11,9.61c0.02,5.79 -6.4,10.25 -11.83,8.45c-4.35,-1.24 -7.37,-5.88 -6.53,-10.36c0.46,-3.81 3.68,-6.91 7.36,-7.7z" fill="#5d5d5d" id="svg_20"/>
    <path d="m32.36,214.34c5.11,-1.37 10.92,2.45 11.51,7.74c0.69,4.92 -3.11,10.01 -8.09,10.56c-4.62,0.64 -9.26,-2.72 -10.29,-7.22c-1.23,-4.75 2.2,-9.93 6.87,-11.08z" fill="#5d5d5d" id="svg_21"/>
    <path d="m96.35,217.23c4.15,-1.37 9.09,0.27 11.24,4.16c3.78,5.47 -0.97,14.05 -7.61,13.81c-4,0.36 -7.9,-2.29 -9.16,-6.08c-1.71,-4.58 0.9,-10.28 5.53,-11.89z" fill="#5d5d5d" id="svg_22"/>
    <path d="m156.91,220.96c3.02,-4.82 10.57,-5.36 14.31,-1.1c2.89,2.94 2.22,7.39 2.1,11.14c-2.32,-1.24 -4.67,-2.41 -7.1,-3.39c0.51,2.61 1.12,5.2 1.72,7.8c-2.73,-0.21 -5.55,-0.19 -8.12,-1.23c-4.65,-2.37 -6.15,-9.1 -2.91,-13.22z" fill="#5d5d5d" id="svg_23"/>
    <path d="m126.04,244.09c2.52,-3.14 4.8,-7.36 9.16,-8.06c5.07,-1.01 10.25,3.01 10.73,8.11c0.54,4.05 -2.65,7.14 -4.82,10.15c-5.77,-2.18 -10.6,-6.04 -15.07,-10.2z" fill="#5d5d5d" id="svg_24"/>
   </g>
   <g id="svg_8">
    <path d="m237.96,113.94c0.16,-0.5 0.49,-1.51 0.66,-2.01l0.55,0.73l-0.34,1.03l-0.87,0.25z" fill="#3a3a3a" id="svg_25" opacity="0.66"/>
   </g>
   <g id="svg_7">
    <path d="m76.39,121.46c14.65,-4.27 31.39,4.22 36.61,18.54c4.37,11.09 1.75,24.76 -6.9,33.09c-7.06,7.24 -17.83,10.48 -27.73,8.46c-14.43,-2.67 -25.56,-16.92 -24.63,-31.58c0.23,-13.12 10.04,-25.18 22.65,-28.51m6.99,3.99c-6.03,1.07 -11.82,5.07 -13.94,10.97c-1.71,4.6 -0.77,9.99 2.29,13.8c4.3,5.84 12.22,8.26 19.19,6.78c8.16,-1.34 15.39,-9.28 13.92,-17.82c-1.52,-9.67 -12.25,-15.57 -21.46,-13.73z" fill="#ffffff" id="svg_26"/>
    <path d="m149.35,121.37c7.63,-1.64 15.93,-0.46 22.6,3.68c10.05,6.07 16.09,18.18 14.66,29.87c-1.18,10.89 -8.55,20.77 -18.64,25.04c-9.1,3.92 -20.13,2.98 -28.43,-2.45c-9.17,-5.8 -14.81,-16.67 -14.25,-27.52c0.57,-13.46 10.74,-25.95 24.06,-28.62m1.07,4.21c-4.82,0.87 -9.39,3.53 -12.28,7.52c-3.95,5.43 -3.31,13.59 1.28,18.45c3.71,3.98 9.15,6.25 14.59,6.13c9.02,0.19 18.29,-7.17 17.92,-16.65c-0.44,-10.36 -11.82,-17.37 -21.51,-15.45z" fill="#ffffff" id="svg_27"/>
   </g>
   <g id="svg_6">
    <path d="m235.98,200.04l0.88,0.22l0.37,1.02l-0.53,0.74c-0.18,-0.5 -0.54,-1.48 -0.72,-1.98z" fill="#404040" id="svg_28" opacity="0.7"/>
   </g>
   <g id="svg_5">
    <path d="m3.07,200.45c2.75,2.09 6.39,3.97 7.14,7.67c1,4.38 -2.09,8.11 -4.42,11.46c-2.34,-6.12 -2.52,-12.68 -2.72,-19.13z" fill="#5c5c5c" id="svg_29"/>
    <path d="m188.41,202.92c1.92,1.85 3.59,4.19 6.14,5.23c2.91,0.69 5.94,0.65 8.91,0.97c-0.52,3.61 -0.56,8.14 -4.08,10.27c-4.8,3.49 -12.45,0.87 -14.09,-4.82c-1.36,-4.19 1.64,-7.95 3.12,-11.65z" fill="#5c5c5c" id="svg_30"/>
    <path d="m222.45,220.42c2.81,-3.67 7.79,-2.95 11.81,-2.55c-1.85,6.85 -7.29,11.61 -12.29,16.24c-1.08,-4.4 -3.2,-9.9 0.48,-13.69z" fill="#5c5c5c" id="svg_31"/>
    <path d="m71.06,235.32c2.49,0.92 5.21,1.55 7.31,3.29c2.69,2.58 3.55,7.09 1.59,10.35c-1.54,2.55 -3.94,4.41 -6.14,6.34c-1.19,-1.11 -2.7,-2.14 -2.95,-3.87c-1.12,-5.31 -0.41,-10.78 0.19,-16.11z" fill="#5c5c5c" id="svg_32"/>
   </g>
   <g id="svg_4">
    <path d="m62.37,202.28c5.71,-1.55 11.63,3.86 11.28,9.61c-0.25,4.28 -3.86,8 -8.05,8.69c-4.76,0.8 -9.89,-2.89 -10.42,-7.73c-0.18,-4.51 2.44,-9.65 7.19,-10.57z" fill="#5e5e5e" id="svg_33"/>
   </g>
   <g id="svg_3">
    <path d="m193.48,239.53c2.38,-1.38 4.77,-3.06 7.59,-3.31c3.24,0.17 6.16,1.79 9.21,2.76c-5.55,0.94 -11.2,0.77 -16.8,0.55z" fill="#5f5f5f" id="svg_34"/>
   </g>
   <g id="svg_2">
    <path d="m191.19,238.83c0.37,0.11 1.09,0.33 1.46,0.45l0.05,0.74l-0.82,0.26c-0.17,-0.37 -0.51,-1.09 -0.69,-1.45z" fill="#3a3a3a" id="svg_35" opacity="0.69"/>
   </g>
   <g id="svg_1">
    <path d="m146.8,255.29c5.1,0.25 10.22,0.21 15.32,-0.08c-5.04,1.03 -10.26,1.03 -15.32,0.08z" fill="#5a5a5a" id="svg_36" opacity="0.89"/>
   </g>
  </symbol>
  <symbol height="1077pt" id="svg_41" viewBox="0 0 1000 1077" width="1000pt" xmlns="http://www.w3.org/2000/svg">
   <g id="svg_40">
    <path d="m450.7,16.71c12.16,-6.31 25.01,-11.59 38.52,-14.12c11.7,-1.26 23.78,-0.58 35.01,3.15c20.15,6.03 38.36,16.9 56.05,28.03c33.98,22.26 65.13,48.5 95.21,75.73c24.77,22.53 48.84,45.8 72.27,69.74c5.1,5.88 11.1,10.9 16.18,16.81c52.16,54.92 102.45,112 145.54,174.43c17.41,25.39 33.85,51.47 48.49,78.55c16.28,30.29 30.83,61.99 38.05,95.78c2.34,11.23 3.72,22.7 3.32,34.18c0.6,17.2 -3.33,34.89 -13.17,49.2c-4.11,6.38 -9.62,11.68 -15.15,16.81c-12.72,11.16 -28.75,17.54 -44.85,22.06c-24.5,6.48 -49.9,8.47 -75.1,10.03c-10.33,1.09 -20.74,0.39 -31.06,1.47c-8.02,-0.14 -16.02,0.63 -24.03,0.25c-1.94,-0.03 -3.88,-0.07 -5.77,0.25c-1.39,1.28 -1.7,3.29 -2.37,4.98c-8.41,25.98 -10.9,53.49 -11.47,80.64c-1.15,6.75 0.24,13.51 0.35,20.28c0.43,9.06 2.29,18.11 5.95,26.44c7.81,17.23 14.98,34.85 19.6,53.23c2.68,10.56 3.34,21.52 3.06,32.38c0.27,13.1 -0.27,26.5 -4.46,39.04c-10.19,30.97 -31.73,56.67 -55.45,78.37c-16.12,14.51 -33.95,26.97 -52.3,38.48c-9.79,-4.68 -19.29,-10.28 -26.9,-18.11c-10.95,-10.26 -19.91,-22.91 -24.8,-37.17c-1.43,-3.75 -2.26,-7.88 -5.02,-10.95c-3.86,7.55 -5.31,16.04 -9.14,23.61c-10.07,22.37 -28.08,40.3 -48.49,53.47c-5.57,3.55 -11.18,7.73 -17.84,8.86c-5.64,-0.18 -10.49,-3.6 -15.27,-6.26c-6.78,-3.99 -13.05,-8.83 -18.43,-14.57c-10.66,-10 -18.37,-22.98 -22.48,-36.97c-1.23,-4.13 -1.44,-8.79 -4.46,-12.14c-2.71,6.36 -3.21,13.39 -5.96,19.73c-8.9,21.71 -26.87,39.09 -48.01,48.9c-3.07,1.74 -6.78,1.98 -9.88,0.19c-27.95,-13.76 -52.34,-36.52 -64.17,-65.72c-2.87,-6.1 -3.4,-13.14 -7.34,-18.74c-3.42,3.9 -3.74,9.33 -6.08,13.81c-5.46,11.53 -11.85,22.97 -21.2,31.83c-8.27,8.29 -18.15,15 -28.87,19.68c-3.8,-1.17 -6.89,-3.86 -10.3,-5.79c-24.98,-15.2 -46.98,-34.86 -66.42,-56.61c-17.33,-20.4 -31.74,-44.65 -35.23,-71.6c-1.12,-10.06 -1.81,-20.23 -0.83,-30.33c1.4,-29.7 13.82,-57.29 26.3,-83.78c3.75,-7.21 1.46,-15.47 2.17,-23.18c1.15,-10.65 0.95,-21.42 0,-32.07c-0.48,-19.25 -3.39,-38.42 -8.5,-56.99c-1.19,-4.39 -2.57,-8.74 -3.66,-13.16c-12.03,-0.77 -24.1,0.16 -36.14,-0.37c-5.72,-0.76 -11.49,-0.51 -17.24,-0.73c-22.36,-1.16 -44.68,-3.31 -66.75,-7.08c-19.37,-3.63 -38.94,-9.17 -55.29,-20.56c-20.01,-13.56 -33.47,-36.81 -34.33,-61.07c-1.6,-18.82 0.14,-37.97 5.58,-56.08c13.48,-47.3 37.46,-90.8 63.82,-132.04c45.24,-70.63 99.23,-135.29 157.17,-195.79c5.68,-6.63 12.3,-12.36 18.05,-18.92c17.52,-17.16 34.51,-34.84 52.2,-51.81c37.29,-35.33 75.87,-69.66 118.52,-98.49c10.67,-6.83 21.34,-13.72 32.8,-19.19m46.5,18.98c-8.85,0.52 -16.67,5.1 -24.42,8.95c-16.03,9.25 -31.03,20.18 -45.41,31.79c-16.53,12.99 -32.25,26.96 -47.81,41.08c-5.79,4.55 -10.36,10.41 -16.05,15.06c-2.54,2.1 -4.98,4.31 -7.28,6.66c-18.41,18.59 -37.11,36.89 -55.36,55.63c-5.52,6.8 -12.12,12.59 -17.88,19.18c-38.67,41.84 -75.97,85.05 -110.65,130.29c-7.07,8.98 -13.53,18.42 -20.65,27.37c-11.25,15.76 -22.72,31.39 -33.27,47.64c-16.06,24.88 -31.4,50.31 -44.16,77.07c-3.74,7.51 -6.2,15.55 -9.65,23.18c-5.07,12.96 -8.86,26.55 -10.02,40.45c0.29,9.46 -0.6,19.53 4.1,28.16c5.03,9.06 13.55,15.6 22.45,20.6c7.77,5.18 16.56,8.42 25.13,11.97c11.45,3.81 22.84,8.01 34.74,10.26c6.8,1.04 13.3,3.41 20.11,4.41c10.49,1.76 20.93,3.8 31.48,5.13c9.01,1.29 18.1,1.83 27.12,3.01c4.51,0.65 9.3,0.34 13.54,2.21c2.37,3.96 3.29,8.58 5.14,12.79c3.08,7.64 6.43,15.16 8.96,23.01c3.68,7.57 5.08,15.94 8.4,23.65c4.42,13.86 8.13,27.97 11.68,42.09c1.13,5.26 7.27,5.7 11.07,8.21c8.8,6.43 16.16,16.65 15.26,28.02c-0.04,6.82 -3.47,13.24 -8.53,17.68c-4.28,3.16 -10.32,3.92 -13.45,8.59c-1.81,3.63 -1.63,7.9 -3.27,11.61c-2.57,6.05 -5.5,11.94 -7.98,18.03c-0.71,1.96 -1.58,4.02 -1.27,6.16c2.07,2.61 4.83,4.56 7.03,7.07c4.75,5.3 8.37,11.9 9.13,19.07c0.66,6.55 1.38,13.43 -1.03,19.74c-2.18,6.45 -7.21,11.4 -12.4,15.56c-4.21,3.35 -9.72,3.87 -14.71,5.32c-1.09,0.29 -2.81,1.03 -2.28,2.48c1.7,8.23 5.46,15.83 8.46,23.63c4.81,9.65 10.96,18.77 18.76,26.27c10.45,10.7 22.02,20.36 34.68,28.34c1.97,1.64 4.17,-0.23 5.81,-1.39c20.11,-15.68 36.84,-35.82 48.32,-58.6c3.6,-6.97 5.38,-14.65 8.18,-21.93c1.38,-3.69 2.21,-7.54 3.38,-11.28c2.57,7.22 1.56,15.11 3.93,22.4c9.36,-5.45 20.15,-9.04 31.08,-7.97c12.71,2 24.4,8.59 33.65,17.4c4.87,5.65 9.72,11.73 11.86,19.02c1.83,5.83 3.9,11.92 2.97,18.13c-1.83,10.77 -8.68,20.35 -17.7,26.34c-6.84,3.79 -14.25,6.41 -21.64,8.89c3.85,3.28 8.19,5.91 12.48,8.58c3.97,2.46 8.79,4.05 13.48,3.11c4.13,-1.15 7.72,-3.61 11.34,-5.81c12.17,-7.27 21.09,-18.86 27.8,-31.14c3.42,-5.65 5.05,-12.12 8.02,-17.98c3.99,-9.74 5.73,-20.17 7.86,-30.42c1.12,-5.7 0.84,-11.7 3.28,-17.09c2.16,16.46 4.64,33.09 11.08,48.51c5.45,13.85 12.37,27.45 22.7,38.33c5.4,5.08 11.38,9.53 17.67,13.44c3.62,2.21 8.14,4.22 12.31,2.27c10.85,-4.2 20.1,-11.74 27.99,-20.16c7.35,-7.27 13.37,-15.85 17.61,-25.28c6.17,-10.51 9.33,-22.37 12.12,-34.13c3.31,-12.58 3.83,-25.64 5.93,-38.42c1.01,2.7 1.86,5.47 2.45,8.31c1.11,5.73 3.31,11.15 5.09,16.69c1.51,3.96 3.02,8.15 6.06,11.24c3.1,-1.52 5.87,-3.66 9.08,-4.98c6.51,-2.87 14.02,-2.98 20.82,-1.05c11.45,3.79 22.19,11.57 27.12,22.86c4.04,10.92 2.46,25.25 -7.49,32.53c-1.69,1.7 -5.14,3.12 -4.17,6.06c1.4,3.18 5.81,4.82 8.72,2.61c8.8,-6.1 17.61,-12.29 25.18,-19.93c6.54,-6.82 13.81,-13.04 19.14,-20.93c2.92,-4.46 6.14,-8.82 8.18,-13.76c1.15,-2.24 -1.16,-4.53 -3.42,-3.55c-10.31,2.48 -21.39,-0.25 -30.17,-5.95c-6.48,-3.77 -10.86,-10.2 -14.31,-16.68c-6.61,-13.81 -6.09,-30.52 0.65,-44.18c5.32,-11.77 13.92,-22.42 25.44,-28.58c3.5,-1.94 7.46,-2.89 10.92,-4.89c-0.91,-5.88 -4.34,-10.92 -6.03,-16.55c-0.93,-2.76 -1.28,-5.71 -2.5,-8.36c-2.75,-2.06 -6.35,-2.36 -9.52,-3.42c-5.28,-1.36 -9.29,-5.32 -12.89,-9.17c-2.42,-2.56 -4.31,-5.66 -4.91,-9.16c-4.04,-14.93 6.5,-33.13 22.53,-34.51c3.33,-0.82 8.93,-0.1 9.56,-4.6c2.47,-8.75 3.91,-17.78 7.02,-26.34c2.11,-5.7 3,-11.75 5.19,-17.42c4.12,-11.56 7.03,-23.58 12.52,-34.61c3.04,-6.13 4.52,-12.91 7.95,-18.86c1.35,-2.2 2.33,-5.31 5.21,-5.84c4.32,-1.06 8.82,-1.05 13.19,-1.83c11.97,-1.93 24.14,-2.17 36.06,-4.41c24.78,-3.8 49.4,-9.14 73.08,-17.46c11.4,-4.85 23.16,-9.31 33.13,-16.87c5.67,-3.93 11.06,-8.47 14.49,-14.58c4.7,-6.65 4.22,-15.1 5.21,-22.81c-0.18,-12.72 -2.52,-25.39 -6.26,-37.53c-5.42,-12.96 -9.66,-26.46 -16.45,-38.82c-6.15,-12.87 -12.98,-25.38 -20.22,-37.67c-17.1,-28.69 -36,-56.28 -55.77,-83.2c-35.8,-48.39 -74.37,-94.72 -114.88,-139.23c-7.01,-7.64 -13.7,-15.56 -21.15,-22.77c-8.91,-10.72 -19.7,-19.68 -28.54,-30.46c-9.81,-9.85 -19.61,-19.72 -29.51,-29.48c-7.38,-5.93 -13.69,-13 -20.61,-19.43c-9.59,-8.38 -18.54,-17.48 -28.33,-25.64c-21.16,-18.74 -43.07,-36.81 -66.89,-52.1c-7.71,-4.41 -15.07,-9.53 -23.49,-12.53c-5.52,-2.58 -11.74,-2.56 -17.7,-2.4z" fill="#5e5e5e" opacity="1"/>
    <path d="m371.35,394.66c7.2,0.03 14.36,-1.28 21.55,-0.47c4.42,0.44 8.88,-0.27 13.27,0.5c10.05,1.66 20.33,2.09 30.16,4.93c7.51,2.28 15.12,4.41 22.18,7.92c9.54,3.9 18.39,9.38 28.27,12.46c4.88,1.47 9.88,3.3 15.06,3.02c8.21,-1.26 16.32,-3.57 23.61,-7.62c16.92,-7.6 33.99,-15.79 52.57,-18.32c10.17,-2.31 20.61,-2.59 30.98,-3.11c7.71,-0.31 15.37,0.79 23.07,0.95c7.26,0.22 14.36,1.8 21.34,3.69c17.62,3.64 34.2,11.63 48.47,22.53c7.72,5.14 13.8,12.18 20.39,18.61c15.47,16.94 26.95,37.5 33.22,59.57c6.21,16.47 8.64,34.13 8.41,51.67c-0.31,3.99 1.73,7.83 1.06,11.8c-1.79,8 -0.62,16.25 -1.72,24.34c-4.01,30.48 -16.8,59.45 -34.99,84.11c-5.92,7.07 -11.63,14.4 -18.68,20.4c-12.97,11.39 -27.74,20.82 -43.81,27.15c-9.18,2.94 -18.39,6.16 -28.04,7.11c-6.21,0.64 -12.44,1.51 -18.69,1.27c-13.53,-0.4 -27.1,-1.18 -40.42,-3.66c-7.28,-1.51 -14,-4.8 -21.01,-7.16c-14.82,-6.05 -28.68,-14.38 -44.07,-19c-3.67,-0.85 -7.45,-0.44 -11.17,-0.44c-3.81,0.07 -7.64,-0.27 -11.44,0.15c-7.32,0.85 -14.37,3.36 -20.83,6.85c-14.34,7.06 -28.53,14.96 -44.25,18.49c-8.96,1.71 -17.9,3.56 -26.99,4.4c-17.53,0.77 -35.32,0.31 -52.4,-4.09c-7.18,-2.02 -13.76,-5.62 -20.56,-8.62c-7.96,-4.19 -15.9,-8.53 -23.23,-13.78c-17.19,-12.81 -31.1,-29.59 -42.17,-47.85c-5,-10.49 -10.75,-20.73 -14.05,-31.95c-1.9,-6.45 -4.21,-12.79 -5.59,-19.38c-2.15,-10.13 -3.08,-20.45 -4.26,-30.72c-0.47,-3.83 0.54,-7.6 0.61,-11.41c0.05,-3.88 -1.65,-7.66 -0.91,-11.55c1.85,-11.22 2.09,-22.75 5.55,-33.66c2.34,-13.31 7.51,-25.83 12.72,-38.21c8.03,-15.22 18.01,-29.61 30.63,-41.39c12.31,-13.05 27.57,-23.1 44.03,-30.12c13.62,-4.73 27.75,-8.19 42.13,-9.41m-1.6,17.25c-5.17,1.52 -10.56,1.93 -15.75,3.36c-12.21,3.63 -23.92,9.02 -34.34,16.39c-8.18,5.91 -16.37,12.26 -22.28,20.54c-0.08,0.63 -0.15,1.28 -0.24,1.92c-0.99,0.34 -2.31,0.43 -2.68,1.61c-5.31,4.39 -8.53,10.69 -12.27,16.37c-5.45,10.37 -11.37,20.86 -13.55,32.5c-2.69,7.07 -4.44,14.57 -4.65,22.15c-2.69,12.27 -1.7,24.87 -1.12,37.29c-0.6,1.45 -0.18,2.4 1.24,2.86c1.12,5.68 1.41,11.53 3.17,17.09c5.14,18.18 13.68,35.5 25.72,50.12c2.59,3.14 4.89,6.7 8.51,8.78c0.15,0.12 0.45,0.36 0.6,0.48c1.03,2.55 3.08,4.41 5.6,5.49c0.96,1.69 2.56,2.88 4.33,3.64c0.91,0.92 1.82,1.87 2.81,2.73c14.32,11.05 31.18,18.74 48.84,22.59c4.9,-0.45 9.47,1.74 14.31,2c4.98,0.32 9.97,-0.1 14.95,0.1c10.54,0.53 20.85,-2.38 30.82,-5.48c0.81,-0.57 1.63,-1.12 2.46,-1.66c5.28,-0.03 9.98,-2.69 14.56,-5c7.24,-3.86 14.24,-8.17 20.73,-13.2c3.21,-2.54 6.69,-4.89 9.1,-8.26c3.18,-1.15 5.32,-3.77 6.69,-6.75c4.66,-3.46 7.61,-8.61 11.12,-13.13c3.23,-4.86 7.46,-9.45 8.33,-15.43c0.04,-2.58 3.37,-4.88 5.49,-2.87c1.54,5.95 5.49,10.78 8.86,15.79c3.22,4.26 6.06,8.96 10.36,12.27c3.54,5.74 8.57,10.78 14.31,14.33c4.18,5.17 10.13,8.48 15.58,12.14c6.9,3.85 13.75,8.18 21.51,10.07c7.99,3.51 16.73,4.78 25.18,6.77c7.62,0.99 15.33,-0.03 22.99,0.46c5.48,0.41 10.57,-1.98 15.96,-2.36c3.18,-0.23 6.25,-1.13 9.23,-2.22c-0.58,-0.31 -1.75,-0.95 -2.34,-1.26c1.55,0.19 3.11,0.39 4.68,0.57c1.41,-1.06 2.92,-2.11 4.77,-2.13c4.18,-0.29 7.92,-2.31 11.73,-3.85c7.14,-3.47 14.01,-7.53 20.35,-12.32c4.24,-3.25 8.84,-6.3 11.76,-10.9c1.48,-0.67 2.64,-1.83 3.32,-3.31c2.04,-1.44 3.98,-3.06 5.55,-5.02c6.41,-7.86 12.47,-16.09 16.94,-25.23c4.83,-9.68 9.82,-19.65 11.4,-30.45c2.86,-4.8 1.68,-10.56 3.28,-15.7c2.3,-7.72 0.79,-15.83 1.18,-23.73c0.88,-12.67 -2.41,-25.08 -5.05,-37.36c-0.31,-0.21 -0.93,-0.63 -1.24,-0.85l0.24,-0.74c-1.11,-5.97 -3.92,-11.46 -6.05,-17.11c-4.16,-9.58 -9.84,-18.4 -15.92,-26.86c-1.46,-2.08 -3.26,-3.87 -5.23,-5.45c-0.09,-0.21 -0.29,-0.64 -0.39,-0.85l-0.34,-0.2c-1.09,-2.49 -2.99,-4.47 -5.49,-5.53c-0.12,-0.15 -0.36,-0.44 -0.49,-0.59c-1.64,-2.82 -4.16,-4.91 -6.66,-6.92c-10.7,-9.17 -23.08,-16.33 -36.2,-21.4c-4.63,-1.63 -9.4,-3.32 -14.39,-2.77c-0.06,-0.78 -0.11,-1.56 -0.15,-2.33c-1.55,0.01 -3.1,-0.02 -4.62,0.18c-0.37,-0.31 -1.11,-0.93 -1.47,-1.24c-6.78,-1.09 -13.63,-1.04 -20.45,-0.59c-5.17,0.4 -10.46,-1.15 -15.54,0.1c-7.36,0.3 -14.92,1.59 -21.58,4.82c-1.26,0.12 -2.5,0.32 -3.74,0.49c-13.98,5.37 -27.48,12.43 -38.78,22.36c-9.75,7.64 -17.38,17.57 -24.46,27.63c-3.89,5.27 -6.13,11.6 -10.54,16.49c-6.35,-11.53 -12.68,-23.64 -22.79,-32.35c-1.29,-2.3 -3.2,-4.23 -5.51,-5.51c-2.88,-3.97 -7.01,-6.73 -10.78,-9.76c-7.75,-6.16 -16.32,-11.23 -25.23,-15.51c-10.22,-4.35 -21.08,-6.68 -31.9,-8.92c-5.35,-0.63 -10.72,0.3 -16.08,0.16c-6.09,0.05 -12.3,-1.18 -18.27,0.46z" fill="#5e5e5e" opacity="1"/>
    <path d="m602.01,433.96c5.58,0.28 11.35,-1.07 16.74,0.98c14.29,3.48 28.01,10.34 38.14,21.18c7.98,7.81 13.43,17.82 17.08,28.29c3.46,7.41 2.11,15.67 2.32,23.56c-0.1,3.51 0.66,7.28 -1.01,10.56c-1.15,2.35 -2.58,4.56 -3.65,6.96c-4.41,10.73 -11.48,20.47 -20.57,27.71c-8.29,6.91 -18.22,11.5 -28.42,14.81c-7.98,2.47 -16.41,2.32 -24.66,2.15c-5.66,-0.14 -11.1,-1.86 -16.52,-3.3c-8.89,-3.12 -17.15,-7.82 -24.52,-13.67c-0.36,-0.3 -1.1,-0.89 -1.47,-1.18c-11.97,-10.37 -20.62,-24.65 -23.4,-40.3c-0.78,-6.19 -0.55,-12.45 -0.34,-18.66c0.03,-2.02 0.42,-4.01 1.11,-5.9c2.25,-6.04 4.08,-12.32 7.53,-17.82c6.38,-10.31 15.41,-18.94 25.73,-25.26c4.53,-2.78 9.47,-4.76 14.13,-7.29c1.98,-1 4,-2.19 6.3,-2.17c5.16,-0.18 10.3,-0.84 15.48,-0.65z" fill="#5e5e5e" opacity="1"/>
    <path d="m373.72,435.45c9.02,-1.3 18.16,-1.6 27.27,-1.53c3.93,-0.1 7.89,0.22 11.72,1.12c14.55,3.38 28.45,10.54 38.66,21.58c5.73,5.67 9.89,12.66 13.56,19.79c2.05,4.64 3.54,9.55 4.39,14.56c0.09,0.46 0.27,1.39 0.36,1.85c0.61,8.05 1.74,16.58 -1.27,24.31c-2.89,10.5 -8.24,20.28 -15.33,28.53c-12.47,13.06 -29.29,22.33 -47.38,24.21c-9.63,0.95 -19.36,0.25 -28.72,-2.2c-14.72,-4.86 -27.82,-14.03 -37.77,-25.87c-7.42,-10.23 -13.12,-22.14 -14.09,-34.88c-0.99,-5.23 0.11,-10.47 1.04,-15.61c2.83,-16.2 12.12,-31.03 25.07,-41.09c5.51,-4.56 11.77,-8.09 18.17,-11.24c2.27,-1.05 4.62,-1.88 6.95,-2.79c-0.66,-0.19 -1.98,-0.55 -2.63,-0.74z" fill="#5e5e5e" opacity="1"/>
    <path d="m324.29,491.37c0.5,0.5 0.5,0.5 0,0z" fill="#5e5e5e" opacity="1"/>
    <path d="m324.48,495.39c0.5,0.49 0.5,0.49 0,0z" fill="#5e5e5e" opacity="1"/>
    <path d="m325.12,506.92c-0.52,0.48 -0.52,0.48 0,0z" fill="#5e5e5e" opacity="1"/>
    <path d="m335.35,538.17c0.49,0.5 0.49,0.5 0,0z" fill="#5e5e5e" opacity="1"/>
    <path d="m339.21,541.8c-0.57,0.49 -0.57,0.49 0,0z" fill="#5e5e5e" opacity="1"/>
    <path d="m351.34,555.17c0.5,0.49 0.5,0.49 0,0z" fill="#5e5e5e" opacity="1"/>
    <path d="m360.36,561.19c0.5,0.5 0.5,0.5 0,0z" fill="#5e5e5e" opacity="1"/>
    <path d="m524.32,776.54c4.58,-0.81 9.68,-1.17 13.81,1.39c7.55,4.47 13.43,11.98 15.38,20.6c0.75,3.17 1.9,6.51 0.82,9.75c-1.14,3.87 -2.49,7.79 -4.85,11.11c-5.21,6.62 -14.19,10.09 -22.48,8.3c-8.43,-1.91 -17.34,-6.44 -20.59,-14.98c-6.58,-14.08 2.34,-33.31 17.91,-36.17z" fill="#5e5e5e" opacity="1"/>
    <path d="m368.16,801.64c8,-1.22 17.08,-0.55 23.61,4.68c4.59,5.18 6.53,12.29 6.92,19.09c0.81,8.55 -3.94,16.63 -9.91,22.38c-6.83,6.39 -16.35,8.65 -25.46,8.77c-5.55,-1.1 -10.68,-4.39 -13.68,-9.22c-3.64,-5.44 -6.56,-11.68 -7.21,-18.23c1.18,-13.49 12.73,-24.82 25.73,-27.47z" fill="#5e5e5e" opacity="1"/>
    <path d="m620.14,810.67c8.49,-1.72 17.66,-0.65 25.01,4.13c4.68,3.36 7.15,8.98 8.35,14.46c1.21,9.61 0.72,20.56 -6.36,27.96c-7.49,7.93 -17.99,13.83 -29.11,13.84c-7.36,0.32 -13.38,-5.11 -17.87,-10.32c-5.22,-8.24 -7.52,-18.53 -5.59,-28.14c3.96,-11.17 14.46,-18.84 25.57,-21.93z" fill="#5e5e5e" opacity="1"/>
    <path d="m467.14,844.6c7.93,-1.52 16.69,-0.12 22.96,5.25c13.84,11.42 16.64,33.03 8.16,48.42c-3.03,5 -7.95,8.67 -13.41,10.62c-7.61,2.58 -15.77,5.06 -23.83,3.25c-9.84,-2.97 -17.14,-11.81 -19.63,-21.6c-2.96,-9.58 0.09,-19.86 4.65,-28.42c4.69,-7.96 11.85,-15.3 21.1,-17.52z" fill="#5e5e5e" opacity="1"/>
    <path d="m304.38,918.22c6.04,-1 11.77,2.57 16.63,5.76c8.37,5.48 13.27,16.92 9.33,26.46c-1.51,4.4 -2.81,9.29 -6.59,12.35c-3.81,3.13 -8.92,4.12 -13.73,4.32c-10.13,0.14 -19.58,-7.48 -22.1,-17.21c-2.05,-6.63 -1.01,-13.9 1.91,-20.1c3.1,-5.53 8.52,-9.71 14.55,-11.58z" fill="#5e5e5e" opacity="1"/>
    <path d="m546.16,934.64c13.6,-3.65 28.89,8.23 28.72,22.27c-1.18,6.46 -1.77,14.1 -7.63,18.25c-4.53,4.42 -11.17,2.58 -16.81,3c-3.96,0.5 -7.17,-2.2 -9.79,-4.8c-5.28,-4.77 -7.98,-12.18 -7.59,-19.19c1.77,-7.67 5.64,-16.02 13.1,-19.53z" fill="#5e5e5e" opacity="1"/>
   </g>
   <g id="svg_39">
    <path d="m497.2,35.69c5.96,-0.16 12.18,-0.18 17.7,2.4c8.42,3 15.78,8.12 23.49,12.53c23.82,15.29 45.73,33.36 66.89,52.1c9.79,8.16 18.74,17.26 28.33,25.64c6.92,6.43 13.23,13.5 20.61,19.43c9.9,9.76 19.7,19.63 29.51,29.48c8.84,10.78 19.63,19.74 28.54,30.46c7.45,7.21 14.14,15.13 21.15,22.77c40.51,44.51 79.08,90.84 114.88,139.23c19.77,26.92 38.67,54.51 55.77,83.2c7.24,12.29 14.07,24.8 20.22,37.67c6.79,12.36 11.03,25.86 16.45,38.82c3.74,12.14 6.08,24.81 6.26,37.53c-0.99,7.71 -0.51,16.16 -5.21,22.81c-3.43,6.11 -8.82,10.65 -14.49,14.58c-9.97,7.56 -21.73,12.02 -33.13,16.87c-23.68,8.32 -48.3,13.66 -73.08,17.46c-11.92,2.24 -24.09,2.48 -36.06,4.41c-4.37,0.78 -8.87,0.77 -13.19,1.83c-2.88,0.53 -3.86,3.64 -5.21,5.84c-3.43,5.95 -4.91,12.73 -7.95,18.86c-5.49,11.03 -8.4,23.05 -12.52,34.61c-2.19,5.67 -3.08,11.72 -5.19,17.42c-3.11,8.56 -4.55,17.59 -7.02,26.34c-0.63,4.5 -6.23,3.78 -9.56,4.6c-16.03,1.38 -26.57,19.58 -22.53,34.51c0.6,3.5 2.49,6.6 4.91,9.16c3.6,3.85 7.61,7.81 12.89,9.17c3.17,1.06 6.77,1.36 9.52,3.42c1.22,2.65 1.57,5.6 2.5,8.36c1.69,5.63 5.12,10.67 6.03,16.55c-3.46,2 -7.42,2.95 -10.92,4.89c-11.52,6.16 -20.12,16.81 -25.44,28.58c-6.74,13.66 -7.26,30.37 -0.65,44.18c3.45,6.48 7.83,12.91 14.31,16.68c8.78,5.7 19.86,8.43 30.17,5.95c2.26,-0.98 4.57,1.31 3.42,3.55c-2.04,4.94 -5.26,9.3 -8.18,13.76c-5.33,7.89 -12.6,14.11 -19.14,20.93c-7.57,7.64 -16.38,13.83 -25.18,19.93c-2.91,2.21 -7.32,0.57 -8.72,-2.61c-0.97,-2.94 2.48,-4.36 4.17,-6.06c9.95,-7.28 11.53,-21.61 7.49,-32.53c-4.93,-11.29 -15.67,-19.07 -27.12,-22.86c-6.8,-1.93 -14.31,-1.82 -20.82,1.05c-3.21,1.32 -5.98,3.46 -9.08,4.98c-3.04,-3.09 -4.55,-7.28 -6.06,-11.24c-1.78,-5.54 -3.98,-10.96 -5.09,-16.69c-0.59,-2.84 -1.44,-5.61 -2.45,-8.31c-2.1,12.78 -2.62,25.84 -5.93,38.42c-2.79,11.76 -5.95,23.62 -12.12,34.13c-4.24,9.43 -10.26,18.01 -17.61,25.28c-7.89,8.42 -17.14,15.96 -27.99,20.16c-4.17,1.95 -8.69,-0.06 -12.31,-2.27c-6.29,-3.91 -12.27,-8.36 -17.67,-13.44c-10.33,-10.88 -17.25,-24.48 -22.7,-38.33c-6.44,-15.42 -8.92,-32.05 -11.08,-48.51c-2.44,5.39 -2.16,11.39 -3.28,17.09c-2.13,10.25 -3.87,20.68 -7.86,30.42c-2.97,5.86 -4.6,12.33 -8.02,17.98c-6.71,12.28 -15.63,23.87 -27.8,31.14c-3.62,2.2 -7.21,4.66 -11.34,5.81c-4.69,0.94 -9.51,-0.65 -13.48,-3.11c-4.29,-2.67 -8.63,-5.3 -12.48,-8.58c7.39,-2.48 14.8,-5.1 21.64,-8.89c9.02,-5.99 15.87,-15.57 17.7,-26.34c0.93,-6.21 -1.14,-12.3 -2.97,-18.13c-2.14,-7.29 -6.99,-13.37 -11.86,-19.02c-9.25,-8.81 -20.94,-15.4 -33.65,-17.4c-10.93,-1.07 -21.72,2.52 -31.08,7.97c-2.37,-7.29 -1.36,-15.18 -3.93,-22.4c-1.17,3.74 -2,7.59 -3.38,11.28c-2.8,7.28 -4.58,14.96 -8.18,21.93c-11.48,22.78 -28.21,42.92 -48.32,58.6c-1.64,1.16 -3.84,3.03 -5.81,1.39c-12.66,-7.98 -24.23,-17.64 -34.68,-28.34c-7.8,-7.5 -13.95,-16.62 -18.76,-26.27c-3,-7.8 -6.76,-15.4 -8.46,-23.63c-0.53,-1.45 1.19,-2.19 2.28,-2.48c4.99,-1.45 10.5,-1.97 14.71,-5.32c5.19,-4.16 10.22,-9.11 12.4,-15.56c2.41,-6.31 1.69,-13.19 1.03,-19.74c-0.76,-7.17 -4.38,-13.77 -9.13,-19.07c-2.2,-2.51 -4.96,-4.46 -7.03,-7.07c-0.31,-2.14 0.56,-4.2 1.27,-6.16c2.48,-6.09 5.41,-11.98 7.98,-18.03c1.64,-3.71 1.46,-7.98 3.27,-11.61c3.13,-4.67 9.17,-5.43 13.45,-8.59c5.06,-4.44 8.49,-10.86 8.53,-17.68c0.9,-11.37 -6.46,-21.59 -15.26,-28.02c-3.8,-2.51 -9.94,-2.95 -11.07,-8.21c-3.55,-14.12 -7.26,-28.23 -11.68,-42.09c-3.32,-7.71 -4.72,-16.08 -8.4,-23.65c-2.53,-7.85 -5.88,-15.37 -8.96,-23.01c-1.85,-4.21 -2.77,-8.83 -5.14,-12.79c-4.24,-1.87 -9.03,-1.56 -13.54,-2.21c-9.02,-1.18 -18.11,-1.72 -27.12,-3.01c-10.55,-1.33 -20.99,-3.37 -31.48,-5.13c-6.81,-1 -13.31,-3.37 -20.11,-4.41c-11.9,-2.25 -23.29,-6.45 -34.74,-10.26c-8.57,-3.55 -17.36,-6.79 -25.13,-11.97c-8.9,-5 -17.42,-11.54 -22.45,-20.6c-4.7,-8.63 -3.81,-18.7 -4.1,-28.16c1.16,-13.9 4.95,-27.49 10.02,-40.45c3.45,-7.63 5.91,-15.67 9.65,-23.18c12.76,-26.76 28.1,-52.19 44.16,-77.07c10.55,-16.25 22.02,-31.88 33.27,-47.64c7.12,-8.95 13.58,-18.39 20.65,-27.37c34.68,-45.24 71.98,-88.45 110.65,-130.29c5.76,-6.59 12.36,-12.38 17.88,-19.18c18.25,-18.74 36.95,-37.04 55.36,-55.63c2.3,-2.35 4.74,-4.56 7.28,-6.66c5.69,-4.65 10.26,-10.51 16.05,-15.06c15.56,-14.12 31.28,-28.09 47.81,-41.08c14.38,-11.61 29.38,-22.54 45.41,-31.79c7.75,-3.85 15.57,-8.43 24.42,-8.95m-125.85,358.97c-14.38,1.22 -28.51,4.68 -42.13,9.41c-16.46,7.02 -31.72,17.07 -44.03,30.12c-12.62,11.78 -22.6,26.17 -30.63,41.39c-5.21,12.38 -10.38,24.9 -12.72,38.21c-3.46,10.91 -3.7,22.44 -5.55,33.66c-0.74,3.89 0.96,7.67 0.91,11.55c-0.07,3.81 -1.08,7.58 -0.61,11.41c1.18,10.27 2.11,20.59 4.26,30.72c1.38,6.59 3.69,12.93 5.59,19.38c3.3,11.22 9.05,21.46 14.05,31.95c11.07,18.26 24.98,35.04 42.17,47.85c7.33,5.25 15.27,9.59 23.23,13.78c6.8,3 13.38,6.6 20.56,8.62c17.08,4.4 34.87,4.86 52.4,4.09c9.09,-0.84 18.03,-2.69 26.99,-4.4c15.72,-3.53 29.91,-11.43 44.25,-18.49c6.46,-3.49 13.51,-6 20.83,-6.85c3.8,-0.42 7.63,-0.08 11.44,-0.15c3.72,0 7.5,-0.41 11.17,0.44c15.39,4.62 29.25,12.95 44.07,19c7.01,2.36 13.73,5.65 21.01,7.16c13.32,2.48 26.89,3.26 40.42,3.66c6.25,0.24 12.48,-0.63 18.69,-1.27c9.65,-0.95 18.86,-4.17 28.04,-7.11c16.07,-6.33 30.84,-15.76 43.81,-27.15c7.05,-6 12.76,-13.33 18.68,-20.4c18.19,-24.66 30.98,-53.63 34.99,-84.11c1.1,-8.09 -0.07,-16.34 1.72,-24.34c0.67,-3.97 -1.37,-7.81 -1.06,-11.8c0.23,-17.54 -2.2,-35.2 -8.41,-51.67c-6.27,-22.07 -17.75,-42.63 -33.22,-59.57c-6.59,-6.43 -12.67,-13.47 -20.39,-18.61c-14.27,-10.9 -30.85,-18.89 -48.47,-22.53c-6.98,-1.89 -14.08,-3.47 -21.34,-3.69c-7.7,-0.16 -15.36,-1.26 -23.07,-0.95c-10.37,0.52 -20.81,0.8 -30.98,3.11c-18.58,2.53 -35.65,10.72 -52.57,18.32c-7.29,4.05 -15.4,6.36 -23.61,7.62c-5.18,0.28 -10.18,-1.55 -15.06,-3.02c-9.88,-3.08 -18.73,-8.56 -28.27,-12.46c-7.06,-3.51 -14.67,-5.64 -22.18,-7.92c-9.83,-2.84 -20.11,-3.27 -30.16,-4.93c-4.39,-0.77 -8.85,-0.06 -13.27,-0.5c-7.19,-0.81 -14.35,0.5 -21.55,0.47m152.97,381.88c-15.57,2.86 -24.49,22.09 -17.91,36.17c3.25,8.54 12.16,13.07 20.59,14.98c8.29,1.79 17.27,-1.68 22.48,-8.3c2.36,-3.32 3.71,-7.24 4.85,-11.11c1.08,-3.24 -0.07,-6.58 -0.82,-9.75c-1.95,-8.62 -7.83,-16.13 -15.38,-20.6c-4.13,-2.56 -9.23,-2.2 -13.81,-1.39m-156.16,25.1c-13,2.65 -24.55,13.98 -25.73,27.47c0.65,6.55 3.57,12.79 7.21,18.23c3,4.83 8.13,8.12 13.68,9.22c9.11,-0.12 18.63,-2.38 25.46,-8.77c5.97,-5.75 10.72,-13.83 9.91,-22.38c-0.39,-6.8 -2.33,-13.91 -6.92,-19.09c-6.53,-5.23 -15.61,-5.9 -23.61,-4.68m251.98,9.03c-11.11,3.09 -21.61,10.76 -25.57,21.93c-1.93,9.61 0.37,19.9 5.59,28.14c4.49,5.21 10.51,10.64 17.87,10.32c11.12,-0.01 21.62,-5.91 29.11,-13.84c7.08,-7.4 7.57,-18.35 6.36,-27.96c-1.2,-5.48 -3.67,-11.1 -8.35,-14.46c-7.35,-4.78 -16.52,-5.85 -25.01,-4.13m-153,33.93c-9.25,2.22 -16.41,9.56 -21.1,17.52c-4.56,8.56 -7.61,18.84 -4.65,28.42c2.49,9.79 9.79,18.63 19.63,21.6c8.06,1.81 16.22,-0.67 23.83,-3.25c5.46,-1.95 10.38,-5.62 13.41,-10.62c8.48,-15.39 5.68,-37 -8.16,-48.42c-6.27,-5.37 -15.03,-6.77 -22.96,-5.25m-162.76,73.62c-6.03,1.87 -11.45,6.05 -14.55,11.58c-2.92,6.2 -3.96,13.47 -1.91,20.1c2.52,9.73 11.97,17.35 22.1,17.21c4.81,-0.2 9.92,-1.19 13.73,-4.32c3.78,-3.06 5.08,-7.95 6.59,-12.35c3.94,-9.54 -0.96,-20.98 -9.33,-26.46c-4.86,-3.19 -10.59,-6.76 -16.63,-5.76m241.78,16.42c-7.46,3.51 -11.33,11.86 -13.1,19.53c-0.39,7.01 2.31,14.42 7.59,19.19c2.62,2.6 5.83,5.3 9.79,4.8c5.64,-0.42 12.28,1.42 16.81,-3c5.86,-4.15 6.45,-11.79 7.63,-18.25c0.17,-14.04 -15.12,-25.92 -28.72,-22.27z" fill="#a4a4a4" opacity="1"/>
    <path d="m471.29,499.74c1.51,0.34 1.51,4.14 0,4.49c-0.95,-1.22 -0.95,-3.29 0,-4.49z" fill="#a4a4a4" opacity="1"/>
    <path d="m262.87,564.04c2.45,-1.91 2.54,1.52 1.24,2.86c-1.42,-0.46 -1.84,-1.41 -1.24,-2.86z" fill="#a4a4a4" opacity="1"/>
   </g>
   <g id="svg_38">
    <path d="m369.75,411.91c5.97,-1.64 12.18,-0.41 18.27,-0.46c5.36,0.14 10.73,-0.79 16.08,-0.16c10.82,2.24 21.68,4.57 31.9,8.92c-0.54,0.49 -1.09,0.98 -1.64,1.46c7.5,3.06 14.7,6.87 21.25,11.64c5.7,3.75 10.27,9.05 16.4,12.17c2.31,1.28 4.22,3.21 5.51,5.51c2.94,5.68 7.62,10.14 11.19,15.38c4.39,6.23 7.11,13.45 11.66,19.59c4.87,-5.59 7.74,-12.51 11.92,-18.58c14.62,-22.32 36.53,-40.2 61.98,-48.58c-0.04,-0.48 -0.14,-1.45 -0.18,-1.94c1.24,-0.17 2.48,-0.37 3.74,-0.49c7.35,-0.69 14.68,-2.1 21.58,-4.82c5.08,-1.25 10.37,0.3 15.54,-0.1c6.82,-0.45 13.67,-0.5 20.45,0.59c-1.17,0.32 -3.55,0.29 -3.59,1.87c1.63,0.68 3.41,-0.36 5.06,-0.63c1.52,-0.2 3.07,-0.17 4.62,-0.18c0.04,0.77 0.09,1.55 0.15,2.33c4.99,-0.55 9.76,1.14 14.39,2.77c-0.58,0.44 -1.14,0.89 -1.7,1.34c10.54,3.1 20.1,8.76 29.04,15.05c5.39,3.7 9.93,8.49 15.52,11.93c0.13,0.15 0.37,0.44 0.49,0.59c1.25,2.35 2.98,4.44 5.49,5.53l0.34,0.2c0.1,0.21 0.3,0.64 0.39,0.85c1.87,4.72 5.64,8.27 8.36,12.47c4.41,6.82 8.86,13.72 11.44,21.48c0.44,-0.55 0.89,-1.1 1.35,-1.64c2.13,5.65 4.94,11.14 6.05,17.11l-0.24,0.74c-0.17,0.54 -0.52,1.6 -0.69,2.13c0.44,1.8 2.37,-0.17 1.93,-1.28c2.64,12.28 5.93,24.69 5.05,37.36c-0.39,7.9 1.12,16.01 -1.18,23.73c-1.6,5.14 -0.42,10.9 -3.28,15.7c-3.33,5.79 -4.54,12.44 -7.23,18.51c-4.48,10.36 -10.11,20.23 -16.75,29.36c-3.14,4.41 -7.56,7.86 -9.91,12.83c-0.68,1.48 -1.84,2.64 -3.32,3.31c-5.18,2.46 -8.74,7.13 -13.4,10.33c-6.35,4.76 -13.34,8.57 -20.56,11.8c0.46,0.28 1.39,0.82 1.85,1.09c-3.81,1.54 -7.55,3.56 -11.73,3.85c-1.85,0.02 -3.36,1.07 -4.77,2.13c-1.57,-0.18 -3.13,-0.38 -4.68,-0.57c0.59,0.31 1.76,0.95 2.34,1.26c-2.98,1.09 -6.05,1.99 -9.23,2.22c-5.39,0.38 -10.48,2.77 -15.96,2.36c-7.66,-0.49 -15.37,0.53 -22.99,-0.46c-8.45,-1.99 -17.19,-3.26 -25.18,-6.77c-1.75,-1.54 -3.76,-2.77 -5.91,-3.66c-9.03,-3.71 -17.45,-8.87 -25.13,-14.88c-1.89,-1.43 -3.95,-2.59 -6.05,-3.67c-5.74,-3.55 -10.77,-8.59 -14.31,-14.33c-2.88,-6.07 -7.82,-10.76 -11.4,-16.37c-2.7,-3.83 -4.47,-8.34 -7.82,-11.69c-2.12,-2.01 -5.45,0.29 -5.49,2.87c-0.87,5.98 -5.1,10.57 -8.33,15.43c-3.51,4.52 -6.46,9.67 -11.12,13.13c-2.71,1.72 -4.98,4.02 -6.69,6.75c-2.41,3.37 -5.89,5.72 -9.1,8.26c-6.49,5.03 -13.49,9.34 -20.73,13.2c-4.58,2.31 -9.28,4.97 -14.56,5c-0.83,0.54 -1.65,1.09 -2.46,1.66c-9.97,3.1 -20.28,6.01 -30.82,5.48c-4.98,-0.2 -9.97,0.22 -14.95,-0.1c-4.84,-0.26 -9.41,-2.45 -14.31,-2c0.71,-0.48 1.43,-0.96 2.15,-1.44c-13.27,-1.86 -25.71,-7.29 -37.3,-13.82c-5.66,-3.11 -10.44,-7.67 -16.5,-10.06c-1.77,-0.76 -3.37,-1.95 -4.33,-3.64c-1.26,-2.4 -3.26,-4.2 -5.6,-5.49c-0.15,-0.12 -0.45,-0.36 -0.6,-0.48c-3.54,-6.11 -8.87,-10.86 -12.78,-16.69c-9.21,-13.31 -16.17,-28.2 -20.11,-43.91c-0.45,0.56 -0.9,1.13 -1.34,1.7c-1.76,-5.56 -2.05,-11.41 -3.17,-17.09c1.3,-1.34 1.21,-4.77 -1.24,-2.86c-0.58,-12.42 -1.57,-25.02 1.12,-37.29c0.21,-7.58 1.96,-15.08 4.65,-22.15c1.64,-3.09 3.2,-6.24 4.33,-9.55c2.84,-8.28 6.97,-16.04 11.39,-23.57c3.09,-5.44 7.62,-9.96 10.1,-15.75c0.37,-1.18 1.69,-1.27 2.68,-1.61c0.09,-0.64 0.16,-1.29 0.24,-1.92c6.02,-3.43 10,-9.27 15.34,-13.53c12.63,-10.17 27.15,-18.23 42.98,-22.06c-0.57,-0.46 -1.13,-0.9 -1.7,-1.34c5.19,-1.43 10.58,-1.84 15.75,-3.36m6.01,0.27c-0.43,1.42 1.97,1.89 2.44,0.65c0.43,-1.43 -1.97,-1.9 -2.44,-0.65m23.02,0c-0.43,1.42 1.97,1.88 2.44,0.64c0.42,-1.42 -1.98,-1.89 -2.44,-0.64m202,0c-0.44,1.41 1.96,1.88 2.44,0.64c0.42,-1.42 -1.99,-1.89 -2.44,-0.64m23.01,0c-0.44,1.42 1.97,1.88 2.44,0.64c0.42,-1.42 -1.98,-1.89 -2.44,-0.64m-233.58,19.94l0.05,0.76c4.5,-0.12 9,-0.12 13.51,0l-0.02,-0.75c-4.52,0.11 -9.03,0.1 -13.54,-0.01m205.59,0.33c4.76,0.57 9.58,0.49 14.36,0.1c-4.77,-0.56 -9.59,-0.49 -14.36,-0.1m6.21,1.51c-5.18,-0.19 -10.32,0.47 -15.48,0.65c-2.3,-0.02 -4.32,1.17 -6.3,2.17c-2.45,-0.19 -4.87,0.39 -7.01,1.58c-15.88,8.09 -30.34,20.52 -37.62,37.11c-1.67,3.65 -3.47,7.54 -2.76,11.68c-0.69,1.89 -1.08,3.88 -1.11,5.9c-0.21,6.21 -0.44,12.47 0.34,18.66c-0.4,1.54 -0.92,3.16 -0.45,4.77c3,13.28 10.76,25.09 20.34,34.58c0.89,1.09 2.2,1.25 3.51,0.95c0.37,0.29 1.11,0.88 1.47,1.18c-0.11,0.39 -0.34,1.18 -0.46,1.58c6.31,4.9 13.14,9.23 20.64,12.06c1.38,0.65 2.9,0.29 4.34,0.03c5.42,1.44 10.86,3.16 16.52,3.3c8.25,0.17 16.68,0.32 24.66,-2.15c1.51,0.22 3.11,0.67 4.62,0.11c8.85,-2.87 16.99,-7.61 24.26,-13.37c-0.11,-0.38 -0.35,-1.16 -0.46,-1.55c9.09,-7.24 16.16,-16.98 20.57,-27.71c1.07,-2.4 2.5,-4.61 3.65,-6.96c1.67,-3.28 0.91,-7.05 1.01,-10.56c-0.21,-7.89 1.14,-16.15 -2.32,-23.56c0.31,-1.72 0.53,-3.54 -0.32,-5.15c-2.05,-4.77 -4.42,-9.43 -7.12,-13.86c-9.8,-14.87 -25.27,-25.6 -42.29,-30.53c-1.81,-0.54 -3.69,-0.16 -5.49,0.07c-5.39,-2.05 -11.16,-0.7 -16.74,-0.98m-228.29,1.49c0.65,0.19 1.97,0.55 2.63,0.74c-2.33,0.91 -4.68,1.74 -6.95,2.79c-1.41,-0.2 -2.94,-0.56 -4.24,0.26c-8.27,4.27 -15.83,9.91 -22.14,16.77c-6.01,5.3 -10.05,12.3 -13.45,19.45c-2.19,4.92 -5.21,10.34 -3.41,15.85c-0.93,5.14 -2.03,10.38 -1.04,15.61c0.97,12.74 6.67,24.65 14.09,34.88c9.95,11.84 23.05,21.01 37.77,25.87c9.36,2.45 19.09,3.15 28.72,2.2c2.21,0.51 4.51,1.03 6.78,0.5c6.22,-1.23 12.15,-3.61 17.97,-6.09c7.11,-3.03 13.05,-8.09 19.04,-12.86c1.66,-1.55 4.35,-3.09 3.59,-5.76c7.09,-8.25 12.44,-18.03 15.33,-28.53c3.01,-7.73 1.88,-16.26 1.27,-24.31c1.42,-0.5 2.18,-2.82 1.2,-4.03c-1.23,-0.59 -1.77,1.29 -1.56,2.18c-0.85,-5.01 -2.34,-9.92 -4.39,-14.56c0.81,-3.45 -1.81,-6.24 -3.38,-9.01c-9.53,-15.92 -25.6,-27.42 -43.31,-32.54c-1.82,-0.58 -3.72,-0.13 -5.53,0.18c-3.83,-0.9 -7.79,-1.22 -11.72,-1.12c-9.11,-0.07 -18.25,0.23 -27.27,1.53m-49.43,55.92c0.5,0.5 0.5,0.5 0,0m0.19,4.02c0.5,0.49 0.5,0.49 0,0m146.81,4.35c-0.95,1.2 -0.95,3.27 0,4.49c1.51,-0.35 1.51,-4.15 0,-4.49m-146.17,7.18c-0.52,0.48 -0.52,0.48 0,0m412.13,27.89c-0.98,0.77 -0.98,2.58 0,3.38c1.65,0.15 1.65,-3.53 0,-3.38m-401.9,3.36c0.49,0.5 0.49,0.5 0,0m3.86,3.63c-0.57,0.49 -0.57,0.49 0,0m398.04,11.02c-0.98,0.77 -0.98,2.59 0,3.37c1.65,0.15 1.65,-3.53 0,-3.37m-385.91,2.35c0.5,0.49 0.5,0.49 0,0m-87.22,4.41c-0.95,1.12 -0.7,1.75 0.76,1.89c0.95,-1.14 0.69,-1.77 -0.76,-1.89m96.24,1.61c0.5,0.5 0.5,0.5 0,0m29.44,9.99c-0.44,1.41 1.96,1.89 2.43,0.65c0.43,-1.42 -1.97,-1.9 -2.43,-0.65m12.96,-0.01c-0.44,1.42 1.96,1.89 2.43,0.65c0.43,-1.43 -1.98,-1.9 -2.43,-0.65m-23.95,107.08c-0.16,1.65 3.52,1.65 3.37,0c-0.78,-0.98 -2.6,-0.98 -3.37,0m16.01,0c-0.16,1.65 3.52,1.65 3.37,0c-0.78,-0.98 -2.6,-0.98 -3.37,0m207.99,0c-0.16,1.65 3.52,1.65 3.38,0c-0.79,-0.98 -2.61,-0.98 -3.38,0m16.99,-0.08c-0.44,1.41 1.95,1.89 2.44,0.66c0.43,-1.43 -1.98,-1.92 -2.44,-0.66z" fill="#ffffff" opacity="1"/>
   </g>
   <g id="svg_37">
    <path d="m577.83,416.37c6.66,-3.23 14.22,-4.52 21.58,-4.82c-6.9,2.72 -14.23,4.13 -21.58,4.82z" fill="#cccccc" opacity="0.93"/>
    <path d="m375.76,412.18c0.47,-1.25 2.87,-0.78 2.44,0.65c-0.47,1.24 -2.87,0.77 -2.44,-0.65z" fill="#cccccc" opacity="0.93"/>
    <path d="m398.78,412.18c0.46,-1.25 2.86,-0.78 2.44,0.64c-0.47,1.24 -2.87,0.78 -2.44,-0.64z" fill="#cccccc" opacity="0.93"/>
    <path d="m600.78,412.18c0.45,-1.25 2.86,-0.78 2.44,0.64c-0.48,1.24 -2.88,0.77 -2.44,-0.64z" fill="#cccccc" opacity="0.93"/>
    <path d="m623.79,412.18c0.46,-1.25 2.86,-0.78 2.44,0.64c-0.47,1.24 -2.88,0.78 -2.44,-0.64z" fill="#cccccc" opacity="0.93"/>
    <path d="m635.4,412.04c0.36,0.31 1.1,0.93 1.47,1.24c-1.65,0.27 -3.43,1.31 -5.06,0.63c0.04,-1.58 2.42,-1.55 3.59,-1.87z" fill="#cccccc" opacity="0.93"/>
    <path d="m319.66,431.66c10.42,-7.37 22.13,-12.76 34.34,-16.39c0.57,0.44 1.13,0.88 1.7,1.34c-15.83,3.83 -30.35,11.89 -42.98,22.06c-5.34,4.26 -9.32,10.1 -15.34,13.53c5.91,-8.28 14.1,-14.63 22.28,-20.54z" fill="#cccccc" opacity="0.93"/>
    <path d="m535.31,439.22c11.3,-9.93 24.8,-16.99 38.78,-22.36c0.04,0.49 0.14,1.46 0.18,1.94c-25.45,8.38 -47.36,26.26 -61.98,48.58c-4.18,6.07 -7.05,12.99 -11.92,18.58c-4.55,-6.14 -7.27,-13.36 -11.66,-19.59c-3.57,-5.24 -8.25,-9.7 -11.19,-15.38c10.11,8.71 16.44,20.82 22.79,32.35c4.41,-4.89 6.65,-11.22 10.54,-16.49c7.08,-10.06 14.71,-19.99 24.46,-27.63z" fill="#cccccc" opacity="0.93"/>
    <path d="m656.03,418.2c13.12,5.07 25.5,12.23 36.2,21.4c2.5,2.01 5.02,4.1 6.66,6.92c-5.59,-3.44 -10.13,-8.23 -15.52,-11.93c-8.94,-6.29 -18.5,-11.95 -29.04,-15.05c0.56,-0.45 1.12,-0.9 1.7,-1.34z" fill="#cccccc" opacity="0.93"/>
    <path d="m436,420.21c8.91,4.28 17.48,9.35 25.23,15.51c3.77,3.03 7.9,5.79 10.78,9.76c-6.13,-3.12 -10.7,-8.42 -16.4,-12.17c-6.55,-4.77 -13.75,-8.58 -21.25,-11.64c0.55,-0.48 1.1,-0.97 1.64,-1.46z" fill="#cccccc" opacity="0.93"/>
    <path d="m390.21,432.12c4.51,0.11 9.02,0.12 13.54,0.01l0.02,0.75c-4.51,-0.12 -9.01,-0.12 -13.51,0l-0.05,-0.76z" fill="#cccccc" opacity="0.93"/>
    <path d="m595.8,432.45c4.77,-0.39 9.59,-0.46 14.36,0.1c-4.78,0.39 -9.6,0.47 -14.36,-0.1z" fill="#cccccc" opacity="0.93"/>
    <path d="m412.71,435.04c1.81,-0.31 3.71,-0.76 5.53,-0.18c17.71,5.12 33.78,16.62 43.31,32.54c1.57,2.77 4.19,5.56 3.38,9.01c-3.67,-7.13 -7.83,-14.12 -13.56,-19.79c-10.21,-11.04 -24.11,-18.2 -38.66,-21.58z" fill="#cccccc" opacity="0.93"/>
    <path d="m618.75,434.94c1.8,-0.23 3.68,-0.61 5.49,-0.07c17.02,4.93 32.49,15.66 42.29,30.53c2.7,4.43 5.07,9.09 7.12,13.86c0.85,1.61 0.63,3.43 0.32,5.15c-3.65,-10.47 -9.1,-20.48 -17.08,-28.29c-10.13,-10.84 -23.85,-17.7 -38.14,-21.18z" fill="#cccccc" opacity="0.93"/>
    <path d="m573.22,438.36c2.14,-1.19 4.56,-1.77 7.01,-1.58c-4.66,2.53 -9.6,4.51 -14.13,7.29c-10.32,6.32 -19.35,14.95 -25.73,25.26c-3.45,5.5 -5.28,11.78 -7.53,17.82c-0.71,-4.14 1.09,-8.03 2.76,-11.68c7.28,-16.59 21.74,-29.02 37.62,-37.11z" fill="#cccccc" opacity="0.93"/>
    <path d="m365.16,439.24c1.3,-0.82 2.83,-0.46 4.24,-0.26c-6.4,3.15 -12.66,6.68 -18.17,11.24c-12.95,10.06 -22.24,24.89 -25.07,41.09c-1.8,-5.51 1.22,-10.93 3.41,-15.85c3.4,-7.15 7.44,-14.15 13.45,-19.45c6.31,-6.86 13.87,-12.5 22.14,-16.77z" fill="#cccccc" opacity="0.93"/>
    <path d="m699.38,447.11c2.5,1.06 4.4,3.04 5.49,5.53c-2.51,-1.09 -4.24,-3.18 -5.49,-5.53z" fill="#cccccc" opacity="0.93"/>
    <path d="m713.96,466.16c-2.72,-4.2 -6.49,-7.75 -8.36,-12.47c1.97,1.58 3.77,3.37 5.23,5.45c6.08,8.46 11.76,17.28 15.92,26.86c-0.46,0.54 -0.91,1.09 -1.35,1.64c-2.58,-7.76 -7.03,-14.66 -11.44,-21.48z" fill="#cccccc" opacity="0.93"/>
    <path d="m282.19,472.1c3.74,-5.68 6.96,-11.98 12.27,-16.37c-2.48,5.79 -7.01,10.31 -10.1,15.75c-4.42,7.53 -8.55,15.29 -11.39,23.57c-1.13,3.31 -2.69,6.46 -4.33,9.55c2.18,-11.64 8.1,-22.13 13.55,-32.5z" fill="#cccccc" opacity="0.93"/>
    <path d="m469.32,490.97c-0.21,-0.89 0.33,-2.77 1.56,-2.18c0.98,1.21 0.22,3.53 -1.2,4.03c-0.09,-0.46 -0.27,-1.39 -0.36,-1.85z" fill="#cccccc" opacity="0.93"/>
    <path d="m731.87,505.98c0.17,-0.53 0.52,-1.59 0.69,-2.13c0.31,0.22 0.93,0.64 1.24,0.85c0.44,1.11 -1.49,3.08 -1.93,1.28z" fill="#cccccc" opacity="0.93"/>
    <path d="m531.62,516.48c-0.47,-1.61 0.05,-3.23 0.45,-4.77c2.78,15.65 11.43,29.93 23.4,40.3c-1.31,0.3 -2.62,0.14 -3.51,-0.95c-9.58,-9.49 -17.34,-21.3 -20.34,-34.58z" fill="#cccccc" opacity="0.93"/>
    <path d="m737.25,534.81c1.65,-0.15 1.65,3.53 0,3.38c-0.98,-0.8 -0.98,-2.61 0,-3.38z" fill="#cccccc" opacity="0.93"/>
    <path d="m405.7,569.87c18.09,-1.88 34.91,-11.15 47.38,-24.21c0.76,2.67 -1.93,4.21 -3.59,5.76c-5.99,4.77 -11.93,9.83 -19.04,12.86c-5.82,2.48 -11.75,4.86 -17.97,6.09c-2.27,0.53 -4.57,0.01 -6.78,-0.5z" fill="#cccccc" opacity="0.93"/>
    <path d="m737.25,552.82c1.65,-0.16 1.65,3.52 0,3.37c-0.98,-0.78 -0.98,-2.6 0,-3.37z" fill="#cccccc" opacity="0.93"/>
    <path d="m556.94,553.19c7.37,5.85 15.63,10.55 24.52,13.67c-1.44,0.26 -2.96,0.62 -4.34,-0.03c-7.5,-2.83 -14.33,-7.16 -20.64,-12.06c0.12,-0.4 0.35,-1.19 0.46,-1.58z" fill="#cccccc" opacity="0.93"/>
    <path d="m622.64,568.01c10.2,-3.31 20.13,-7.9 28.42,-14.81c0.11,0.39 0.35,1.17 0.46,1.55c-7.27,5.76 -15.41,10.5 -24.26,13.37c-1.51,0.56 -3.11,0.11 -4.62,-0.11z" fill="#cccccc" opacity="0.93"/>
    <path d="m264.12,559.58c1.45,0.12 1.71,0.75 0.76,1.89c-1.46,-0.14 -1.71,-0.77 -0.76,-1.89z" fill="#cccccc" opacity="0.93"/>
    <path d="m389.8,571.18c0.46,-1.25 2.86,-0.77 2.43,0.65c-0.47,1.24 -2.87,0.76 -2.43,-0.65z" fill="#cccccc" opacity="0.93"/>
    <path d="m402.76,571.17c0.45,-1.25 2.86,-0.78 2.43,0.65c-0.47,1.24 -2.87,0.77 -2.43,-0.65z" fill="#cccccc" opacity="0.93"/>
    <path d="m267.28,583.99c0.44,-0.57 0.89,-1.14 1.34,-1.7c3.94,15.71 10.9,30.6 20.11,43.91c3.91,5.83 9.24,10.58 12.78,16.69c-3.62,-2.08 -5.92,-5.64 -8.51,-8.78c-12.04,-14.62 -20.58,-31.94 -25.72,-50.12z" fill="#cccccc" opacity="0.93"/>
    <path d="m727.16,600c2.69,-6.07 3.9,-12.72 7.23,-18.51c-1.58,10.8 -6.57,20.77 -11.4,30.45c-4.47,9.14 -10.53,17.37 -16.94,25.23c-1.57,1.96 -3.51,3.58 -5.55,5.02c2.35,-4.97 6.77,-8.42 9.91,-12.83c6.64,-9.13 12.27,-19 16.75,-29.36z" fill="#cccccc" opacity="0.93"/>
    <path d="m502.25,608.14c3.35,3.35 5.12,7.86 7.82,11.69c3.58,5.61 8.52,10.3 11.4,16.37c-4.3,-3.31 -7.14,-8.01 -10.36,-12.27c-3.37,-5.01 -7.32,-9.84 -8.86,-15.79z" fill="#cccccc" opacity="0.93"/>
    <path d="m470.62,646.32c1.71,-2.73 3.98,-5.03 6.69,-6.75c-1.37,2.98 -3.51,5.6 -6.69,6.75z" fill="#cccccc" opacity="0.93"/>
    <path d="m302.11,643.37c2.34,1.29 4.34,3.09 5.6,5.49c-2.52,-1.08 -4.57,-2.94 -5.6,-5.49z" fill="#cccccc" opacity="0.93"/>
    <path d="m683.78,655.83c4.66,-3.2 8.22,-7.87 13.4,-10.33c-2.92,4.6 -7.52,7.65 -11.76,10.9c-6.34,4.79 -13.21,8.85 -20.35,12.32c-0.46,-0.27 -1.39,-0.81 -1.85,-1.09c7.22,-3.23 14.21,-7.04 20.56,-11.8z" fill="#cccccc" opacity="0.93"/>
    <path d="m535.78,650.53c2.1,1.08 4.16,2.24 6.05,3.67c7.68,6.01 16.1,11.17 25.13,14.88c2.15,0.89 4.16,2.12 5.91,3.66c-7.76,-1.89 -14.61,-6.22 -21.51,-10.07c-5.45,-3.66 -11.4,-6.97 -15.58,-12.14z" fill="#cccccc" opacity="0.93"/>
    <path d="m312.04,652.5c6.06,2.39 10.84,6.95 16.5,10.06c11.59,6.53 24.03,11.96 37.3,13.82c-0.72,0.48 -1.44,0.96 -2.15,1.44c-17.66,-3.85 -34.52,-11.54 -48.84,-22.59c-0.99,-0.86 -1.9,-1.81 -2.81,-2.73z" fill="#cccccc" opacity="0.93"/>
    <path d="m378.81,678.25c0.77,-0.98 2.59,-0.98 3.37,0c0.15,1.65 -3.53,1.65 -3.37,0z" fill="#cccccc" opacity="0.93"/>
    <path d="m394.82,678.25c0.77,-0.98 2.59,-0.98 3.37,0c0.15,1.65 -3.53,1.65 -3.37,0z" fill="#cccccc" opacity="0.93"/>
    <path d="m602.81,678.25c0.77,-0.98 2.59,-0.98 3.38,0c0.14,1.65 -3.54,1.65 -3.38,0z" fill="#cccccc" opacity="0.93"/>
    <path d="m619.8,678.17c0.46,-1.26 2.87,-0.77 2.44,0.66c-0.49,1.23 -2.88,0.75 -2.44,-0.66z" fill="#cccccc" opacity="0.93"/>
   </g>
  </symbol>
 </defs>
 <g class="layer">
  <title>Layer 1</title>
  <g id="svg_14"/>
  <use id="svg_13" transform="matrix(0.650695 0 0 0.650695 -56.4415 -246.327)" x="226.35039" xlink:href="#svg_12" y="514.534503"/>
  <use id="svg_42" transform="matrix(0.683445 0 0 0.677692 -111.8 -402.46)" x="159.086605" xlink:href="#svg_41" y="598.784277"/>
  <g id="svg_43"/>
 </g>
</svg>